<svg width="241" height="200" viewBox="0 0 241 200" fill="none" xmlns="http://www.w3.org/2000/svg">
<path d="M46.7804 143.029H44.0003C36.5068 142.503 29.2679 140.089 22.9573 136.01C16.6466 131.931 11.4692 126.32 7.90703 119.7C7.88573 119.564 7.88573 119.425 7.90703 119.289L0.436967 46.1804C0.423412 45.9589 0.467526 45.7376 0.564987 45.5382C0.662448 45.3389 0.80991 45.1682 0.992981 45.043C1.23473 44.8736 27.5855 27.0866 23.5724 2.01541C23.5455 1.80337 23.574 1.58795 23.6552 1.39026C23.7364 1.19258 23.8675 1.01939 24.0356 0.887659C24.2038 0.755926 24.4032 0.670165 24.6144 0.638776C24.8256 0.607387 25.0414 0.631454 25.2405 0.708603C25.579 0.708603 59.569 14.4784 79.7068 2.91079C79.8637 2.8449 80.0322 2.81096 80.2024 2.81096C80.3726 2.81096 80.541 2.8449 80.698 2.91079C81.018 3.03454 81.2778 3.27732 81.4232 3.58839C81.9309 4.77419 93.9942 33.1366 90.2471 56.054C89.3355 62.4737 86.6367 68.5068 82.4597 73.4628C78.2827 78.4187 72.7962 82.0974 66.6281 84.0776L69.0456 122.967C69.1446 125.579 68.7279 128.184 67.8194 130.634C66.9109 133.084 65.5285 135.331 63.7513 137.245C59.8108 141.069 54.1296 143.029 46.7804 143.029ZM10.1795 118.829C13.5654 125.022 18.4532 130.263 24.393 134.069C30.3328 137.875 37.1337 140.124 44.1695 140.609C52.1231 141.117 58.0943 139.399 61.9382 135.551C65.0285 132.15 66.6833 127.684 66.5556 123.088L64.1381 83.2306C64.1245 82.9438 64.2112 82.6613 64.3833 82.4316C64.5554 82.2019 64.8021 82.0394 65.0809 81.9722C71.0495 80.32 76.3974 76.9395 80.4532 72.2552C84.5091 67.5708 87.0921 61.7914 87.8779 55.6426C91.069 36.0406 81.9792 11.4776 79.7068 5.74221C61.1162 15.4222 33.7743 6.49239 26.2317 3.75779C28.6492 27.0866 6.89169 43.8572 2.92699 46.7128L10.1795 118.829Z" fill="#3C4242"/>
<path d="M66.7247 57.9658C64.69 57.9503 62.6603 57.7641 60.6567 57.4092C60.5012 57.3775 60.3534 57.3153 60.2218 57.2264C60.0902 57.1374 59.9774 57.0234 59.8899 56.8908C59.8023 56.7582 59.7417 56.6097 59.7115 56.4536C59.6813 56.2976 59.6821 56.1371 59.7139 55.9814C59.7426 55.8241 59.8027 55.6743 59.8907 55.5408C59.9787 55.4074 60.0928 55.2932 60.226 55.205C60.3593 55.1169 60.5089 55.0566 60.6661 55.0278C60.8232 54.9991 60.9845 55.0024 61.1402 55.0376C61.1402 55.0376 69.1905 56.5864 72.986 54.3116C73.5662 51.1656 65.9511 40.7112 60.3908 34.2498C60.1792 34.0059 60.0731 33.6879 60.0958 33.3656C60.1184 33.0434 60.2681 32.7434 60.5117 32.5316C60.7553 32.3198 61.0731 32.2136 61.3949 32.2363C61.7168 32.2589 62.0165 32.4087 62.2281 32.6526C64.6456 35.4114 76.298 49.3748 75.476 54.4326C75.4295 54.8242 75.2943 55.2 75.0806 55.5313C74.8669 55.8627 74.5805 56.1408 74.2431 56.3444C71.9197 57.5282 69.3288 58.0869 66.7247 57.9658Z" fill="#3C4242"/>
<path d="M57.9248 70.9854C56.4576 70.9876 54.9932 70.858 53.5492 70.5982C46.6978 69.3812 40.5117 65.7396 36.119 60.3374C35.9738 60.0546 35.9457 59.7259 36.0407 59.4225C36.1357 59.1191 36.3462 58.8653 36.6267 58.716C36.9099 58.5676 37.2396 58.5351 37.5463 58.6254C37.853 58.7157 38.1127 58.9217 38.2706 59.2C42.3395 63.9651 47.9376 67.1649 54.1052 68.2508C62.2763 69.5818 70.3991 66.581 78.2802 59.321C78.3934 59.1999 78.5303 59.1033 78.6824 59.0374C78.8345 58.9715 78.9984 58.9376 79.1642 58.9378C79.3299 58.938 79.4938 58.9723 79.6457 59.0385C79.7976 59.1048 79.9343 59.2016 80.0472 59.323C80.1602 59.4444 80.247 59.5877 80.3023 59.7441C80.3576 59.9005 80.3801 60.0666 80.3686 60.2321C80.357 60.3976 80.3116 60.5589 80.2351 60.7061C80.1587 60.8533 80.0528 60.9831 79.9241 61.0876C72.7683 67.67 65.4191 70.9854 57.9248 70.9854Z" fill="#3C4242"/>
<path d="M65.1774 83.0854C65.1774 83.0854 44.0968 87.1268 31.6709 84.7794C31.6709 84.7794 46.9978 115.32 67.2081 113.819L65.1774 83.0854Z" fill="#3C4242"/>
<path d="M65.8299 115.126C45.8372 115.126 31.2596 86.5702 30.6311 85.3118C30.536 85.1106 30.4971 84.8874 30.5184 84.6659C30.5396 84.4444 30.6204 84.2327 30.752 84.0534C30.8834 83.8698 31.0654 83.7285 31.2758 83.6468C31.4862 83.5651 31.7158 83.5466 31.9365 83.5936C44.024 85.8684 64.7904 81.948 65.0079 81.8996C65.177 81.8672 65.3511 81.872 65.5181 81.9138C65.6851 81.9556 65.841 82.0334 65.9749 82.1416C66.1083 82.2465 66.218 82.3782 66.2972 82.5283C66.3763 82.6784 66.423 82.8434 66.4343 83.0128L68.465 113.771C68.4782 113.93 68.4599 114.09 68.411 114.242C68.3622 114.394 68.2839 114.535 68.1805 114.656C68.0772 114.777 67.9508 114.877 67.8088 114.95C67.6668 115.022 67.5118 115.066 67.3529 115.078L65.8299 115.126ZM33.9672 86.3282C37.7385 92.9348 50.3337 112.706 65.8541 112.706L63.9926 84.5132C59.5686 85.3118 44.7251 87.635 33.9672 86.3282Z" fill="#3C4242"/>
<path d="M187.189 84.489L239.576 81.9238L213.322 193.099L156.994 198.64L187.189 84.489Z" fill="#3C4242"/>
<path d="M157.043 199.85C156.869 199.854 156.697 199.818 156.538 199.747C156.379 199.676 156.238 199.571 156.124 199.439C155.995 199.288 155.904 199.108 155.858 198.914C155.811 198.721 155.812 198.519 155.858 198.326L186.053 84.1986C186.116 83.9486 186.259 83.726 186.459 83.5645C186.66 83.4029 186.908 83.3112 187.165 83.3032L239.528 80.7138C239.717 80.6981 239.906 80.7298 240.079 80.8059C240.252 80.8819 240.403 81 240.519 81.1494C240.642 81.2945 240.728 81.467 240.77 81.6523C240.812 81.8376 240.809 82.0303 240.761 82.2142L214.531 193.389C214.472 193.634 214.337 193.855 214.147 194.019C213.956 194.184 213.718 194.285 213.468 194.309L157.043 199.85ZM188.18 85.6748L158.639 197.261L212.404 191.985L238.078 83.2064L188.18 85.6748Z" fill="#3C4242"/>
<path d="M119.112 179.45C118.804 179.45 118.507 179.333 118.282 179.121C118.057 178.91 117.922 178.621 117.903 178.312C116.853 162.292 113.313 146.534 107.411 131.606C107.281 131.314 107.271 130.982 107.384 130.683C107.497 130.383 107.724 130.141 108.016 130.009C108.16 129.941 108.316 129.903 108.475 129.896C108.634 129.89 108.793 129.916 108.942 129.972C109.091 130.029 109.227 130.115 109.342 130.225C109.457 130.335 109.549 130.468 109.611 130.614C115.636 145.801 119.25 161.838 120.321 178.143C120.341 178.467 120.233 178.785 120.02 179.029C119.808 179.274 119.508 179.425 119.185 179.45H119.112Z" fill="#3C4242"/>
<path d="M36.9168 32.338C36.797 32.3615 36.6739 32.3615 36.5542 32.338C36.2509 32.2431 35.9971 32.0324 35.8478 31.7516C35.6985 31.4708 35.6656 31.1424 35.7564 30.8376C36.7407 27.7172 38.9116 25.1095 41.8001 23.5776C43.2534 23.0105 44.8147 22.7749 46.3704 22.8879C47.9261 23.0009 49.437 23.4598 50.7932 24.231C51.0589 24.3823 51.2574 24.6287 51.3489 24.9206C51.4404 25.2125 51.418 25.5283 51.2863 25.8044C51.1545 26.0804 50.9231 26.2963 50.6388 26.4085C50.3544 26.5206 50.0382 26.5208 49.7537 26.409C48.7046 25.8017 47.535 25.4328 46.3277 25.3283C45.1203 25.2237 43.9048 25.3861 42.7671 25.804C40.5462 27.0088 38.8687 29.017 38.0772 31.4184C38.0129 31.6787 37.8641 31.9103 37.654 32.0768C37.444 32.2432 37.1847 32.3351 36.9168 32.338Z" fill="#3C4242"/>
<path d="M70.3994 25.1748H70.1818C69.8663 25.1104 69.5884 24.9249 69.4077 24.6581C69.227 24.3913 69.1578 24.0643 69.2148 23.747C69.4048 22.7523 69.8223 21.8152 70.4347 21.009C71.0471 20.2029 71.8376 19.5497 72.7443 19.1006C74.8717 18.2536 77.5793 18.9312 80.4562 21.085C80.6859 21.2819 80.8336 21.5579 80.8699 21.8585C80.9063 22.1591 80.8289 22.4624 80.6528 22.7085C80.4767 22.9547 80.2148 23.1258 79.9188 23.1882C79.6228 23.2505 79.3143 23.1995 79.054 23.0452C76.8057 21.4238 74.9443 20.843 73.663 21.327C73.1322 21.629 72.6735 22.043 72.3187 22.5403C71.9638 23.0376 71.7214 23.6063 71.6081 24.2068C71.5474 24.4821 71.3943 24.7283 71.1744 24.9044C70.9545 25.0805 70.681 25.1759 70.3994 25.1748Z" fill="#3C4242"/>
</svg>
