<svg width="23" height="23" viewBox="0 0 23 23" fill="none" xmlns="http://www.w3.org/2000/svg">
<path d="M2.78955 4.12616H3.35341C4.30255 4.12616 5.09944 4.84084 5.20237 5.78439L5.95653 12.6976C6.05947 13.6411 6.85635 14.3558 7.8055 14.3558H15.8519C16.7021 14.3558 17.4441 13.7793 17.6541 12.9555L18.9374 7.92331C19.2373 6.74731 18.3488 5.60377 17.1352 5.60377H6.13743M6.16045 17.7269H6.85793M6.16045 18.4243H6.85793M16.3901 17.7269H17.0876M16.3901 18.4243H17.0876M7.43938 18.0757C7.43938 18.5893 7.02302 19.0056 6.50942 19.0056C5.99581 19.0056 5.57945 18.5893 5.57945 18.0757C5.57945 17.5621 5.99581 17.1457 6.50942 17.1457C7.02302 17.1457 7.43938 17.5621 7.43938 18.0757ZM17.669 18.0757C17.669 18.5893 17.2527 19.0056 16.7391 19.0056C16.2254 19.0056 15.8091 18.5893 15.8091 18.0757C15.8091 17.5621 16.2254 17.1457 16.7391 17.1457C17.2527 17.1457 17.669 17.5621 17.669 18.0757Z" stroke="#807D7E" stroke-width="1.67394" stroke-linecap="round"/>
</svg>
