<svg width="23" height="24" viewBox="0 0 23 24" fill="none" xmlns="http://www.w3.org/2000/svg">
<path d="M7.32497 23.1746C4.7463 23.1746 2.34255 22.2615 0.319336 20.6861C2.03711 20.8214 5.0686 20.4973 6.95418 18.3078C4.11765 18.1493 2.83843 15.5009 2.67157 14.3691C2.91258 14.4823 4.06203 14.6181 4.71091 14.3012C1.44797 13.3052 0.947404 9.81926 1.05864 8.75536C1.67044 9.27599 2.70865 9.45708 3.11652 9.41181C0.076051 6.76339 1.16988 2.77943 1.70752 1.91926C3.88947 5.59932 7.15954 7.66618 11.205 7.78115C11.1288 7.37389 11.0885 6.94988 11.0885 6.51439C11.0885 3.389 13.1636 0.855362 15.7233 0.855362C17.0608 0.855362 18.2659 1.54702 19.1119 2.65336C20.0056 2.3984 21.3506 1.80157 22.0082 1.28545C21.6768 2.73416 20.6449 3.94268 20.0207 4.3906C20.0259 4.40584 20.0157 4.3753 20.0207 4.3906C20.569 4.28964 22.0525 3.94256 22.6385 3.45851C22.3487 4.27238 21.2547 5.62559 20.357 6.38317C20.524 15.3513 14.8878 23.1746 7.32497 23.1746Z" fill="#47ACDF"/>
</svg>
