<svg width="19" height="19" viewBox="0 0 19 19" fill="none" xmlns="http://www.w3.org/2000/svg">
<path d="M1.94389 18.7566C1.78696 18.7632 1.6304 18.7364 1.48456 18.678C1.33872 18.6196 1.20689 18.5309 1.09775 18.4178C0.98446 18.3053 0.894559 18.1715 0.833192 18.024C0.771826 17.8766 0.740234 17.7184 0.740234 17.5587C0.740234 17.399 0.771826 17.2408 0.833192 17.0934C0.894559 16.9459 0.98446 16.8121 1.09775 16.6996L16.6181 1.26001C16.8441 1.03831 17.1478 0.914124 17.4642 0.914124C17.7806 0.914124 18.0844 1.03831 18.3103 1.26001C18.4236 1.3725 18.5135 1.50633 18.5749 1.65378C18.6363 1.80122 18.6679 1.95938 18.6679 2.11911C18.6679 2.27885 18.6363 2.437 18.5749 2.58445C18.5135 2.7319 18.4236 2.86572 18.3103 2.97821L2.79003 18.5146C2.67286 18.6105 2.53735 18.6813 2.39186 18.723C2.24637 18.7646 2.09396 18.776 1.94389 18.7566Z" fill="#D1D3D4"/>
</svg>
