<svg width="204" height="122" viewBox="0 0 204 122" fill="none" xmlns="http://www.w3.org/2000/svg">
<path d="M1.43942 121.891C1.13716 121.898 0.843606 121.789 0.618878 121.587C0.394151 121.384 0.255263 121.103 0.230668 120.802C0.230668 120.415 -0.542926 111.267 4.31625 78.7906C7.60559 58.0015 13.1002 37.6228 20.7069 18.0002C20.791 17.7985 20.927 17.6228 21.1012 17.491C21.2753 17.3592 21.4813 17.276 21.6981 17.25L175.379 0.769794C175.671 0.732617 175.968 0.806319 176.209 0.976434C176.451 1.14655 176.62 1.40082 176.684 1.68941L203.083 116.397C203.123 116.574 203.122 116.757 203.08 116.934C203.038 117.11 202.956 117.274 202.841 117.414C202.735 117.557 202.596 117.674 202.437 117.754C202.277 117.833 202.101 117.875 201.923 117.874L1.4636 121.891H1.43942ZM6.70957 79.1536C2.81739 105.144 2.55148 116.18 2.59983 119.447L200.376 115.502L174.581 3.28658L22.6892 19.5732C15.3054 38.8224 9.94983 58.7908 6.70957 79.1536Z" fill="#3C4242"/>
</svg>
