<svg width="34" height="44" viewBox="0 0 34 44" fill="none" xmlns="http://www.w3.org/2000/svg">
<path d="M23.6494 43.6536C16.6628 43.6536 8.34661 38.8136 3.68083 31.5536C1.22566 28.0414 -0.0486086 23.8378 0.0426688 19.552C0.133946 15.2663 1.58603 11.1209 4.18851 7.71661C7.54883 2.87661 11.441 0.456593 15.5266 0.819593C25.1966 1.42459 32.7392 15.7752 33.0776 16.3802C33.2221 16.6695 33.2473 17.0041 33.1478 17.3119C33.0484 17.6196 32.8322 17.876 32.5458 18.0258C32.2633 18.1711 31.9349 18.1993 31.6318 18.1042C31.3287 18.0091 31.0752 17.7984 30.9261 17.5176C30.9261 17.3724 23.6736 3.74779 15.3815 3.23959C12.1421 3.02179 9.02351 5.00621 6.17086 9.09601C3.86727 12.1178 2.57959 15.7926 2.49272 19.5927C2.40585 23.3928 3.52427 27.1227 5.68736 30.2468C10.3773 37.5068 19.3946 42.2016 25.801 40.9432C26.1179 40.8861 26.4446 40.9554 26.7111 41.1363C26.9776 41.3172 27.1629 41.5953 27.2273 41.9112C27.2838 42.2256 27.2139 42.5495 27.0327 42.8125C26.8516 43.0754 26.5739 43.256 26.2603 43.3148C25.4034 43.5141 24.5288 43.6276 23.6494 43.6536Z" fill="#3C4242"/>
</svg>
