<svg width="30" height="22" viewBox="0 0 30 22" fill="none" xmlns="http://www.w3.org/2000/svg">
<path d="M1.43631 21.4282C1.24178 21.4335 1.04904 21.3897 0.875836 21.3009C0.702632 21.2121 0.554522 21.0811 0.44513 20.92C0.264044 20.6553 0.193071 20.3303 0.247226 20.0141C0.30138 19.6979 0.476429 19.4152 0.735255 19.226L27.3278 0.833973C27.4591 0.742314 27.6074 0.677708 27.7639 0.643895C27.9205 0.610082 28.0821 0.607738 28.2396 0.637008C28.397 0.666279 28.5471 0.726582 28.6811 0.814402C28.815 0.902222 28.9303 1.01582 29.02 1.14858C29.111 1.27817 29.1751 1.42468 29.2085 1.57948C29.242 1.73428 29.2441 1.89422 29.2148 2.04986C29.1855 2.20551 29.1254 2.35371 29.038 2.4857C28.9505 2.6177 28.8375 2.7308 28.7057 2.81837L2.11321 21.2104C1.91666 21.3536 1.67941 21.4299 1.43631 21.4282Z" fill="#D1D3D4"/>
</svg>
