<svg width="30" height="21" viewBox="0 0 30 21" fill="none" xmlns="http://www.w3.org/2000/svg">
<path d="M1.95748 20.928C1.76153 20.9263 1.56893 20.877 1.39626 20.7843C1.22359 20.6915 1.07602 20.5581 0.966291 20.3956C0.875329 20.266 0.811261 20.1195 0.777793 19.9647C0.744325 19.8099 0.742154 19.6499 0.771448 19.4943C0.800742 19.3387 0.860918 19.1905 0.948364 19.0585C1.03581 18.9265 1.14874 18.8134 1.28058 18.7258L27.8731 0.333797C28.0011 0.241569 28.1462 0.175861 28.2999 0.140507C28.4536 0.105153 28.6128 0.100867 28.7681 0.127915C28.9235 0.154963 29.0719 0.212795 29.2047 0.298016C29.3374 0.383237 29.4518 0.494136 29.5412 0.624204C29.6339 0.754256 29.7 0.901401 29.7356 1.05716C29.7713 1.21293 29.7757 1.37422 29.7488 1.53172C29.7218 1.68922 29.6639 1.83981 29.5785 1.9748C29.4931 2.10979 29.3818 2.2265 29.2511 2.3182L2.65857 20.7102C2.45173 20.851 2.20761 20.9268 1.95748 20.928Z" fill="#D1D3D4"/>
</svg>
