<svg width="17" height="17" viewBox="0 0 17 17" fill="none" xmlns="http://www.w3.org/2000/svg">
<path d="M8.46564 4.47571C6.25455 4.47571 4.47107 6.25919 4.47107 8.47028C4.47107 10.6814 6.25455 12.4649 8.46564 12.4649C10.6767 12.4649 12.4602 10.6814 12.4602 8.47028C12.4602 6.25919 10.6767 4.47571 8.46564 4.47571ZM8.46564 11.0673C7.03678 11.0673 5.86865 9.90263 5.86865 8.47028C5.86865 7.03794 7.0333 5.87329 8.46564 5.87329C9.89799 5.87329 11.0626 7.03794 11.0626 8.47028C11.0626 9.90263 9.89451 11.0673 8.46564 11.0673ZM13.5553 4.31231C13.5553 4.83032 13.1381 5.24403 12.6236 5.24403C12.1056 5.24403 11.6919 4.82685 11.6919 4.31231C11.6919 3.79778 12.1091 3.3806 12.6236 3.3806C13.1381 3.3806 13.5553 3.79778 13.5553 4.31231ZM16.201 5.25794C16.1419 4.00985 15.8568 2.90431 14.9425 1.99345C14.0316 1.08259 12.9261 0.79751 11.678 0.734932C10.3917 0.661924 6.53615 0.661924 5.24982 0.734932C4.00521 0.794033 2.89967 1.07911 1.98533 1.98997C1.07099 2.90083 0.789392 4.00638 0.726814 5.25446C0.653806 6.54079 0.653806 10.3963 0.726814 11.6826C0.785916 12.9307 1.07099 14.0363 1.98533 14.9471C2.89967 15.858 4.00174 16.1431 5.24982 16.2056C6.53615 16.2786 10.3917 16.2786 11.678 16.2056C12.9261 16.1465 14.0316 15.8615 14.9425 14.9471C15.8533 14.0363 16.1384 12.9307 16.201 11.6826C16.274 10.3963 16.274 6.54427 16.201 5.25794ZM14.5392 13.0628C14.268 13.7442 13.7431 14.2692 13.0582 14.5438C12.0326 14.9506 9.599 14.8567 8.46564 14.8567C7.33228 14.8567 4.89521 14.9471 3.8731 14.5438C3.1917 14.2727 2.66674 13.7477 2.39209 13.0628C1.98533 12.0372 2.0792 9.60364 2.0792 8.47028C2.0792 7.33692 1.98881 4.89985 2.39209 3.87774C2.66326 3.19634 3.18822 2.67138 3.8731 2.39673C4.89869 1.98997 7.33228 2.08384 8.46564 2.08384C9.599 2.08384 12.0361 1.99345 13.0582 2.39673C13.7396 2.6679 14.2645 3.19286 14.5392 3.87774C14.946 4.90333 14.8521 7.33692 14.8521 8.47028C14.8521 9.60364 14.946 12.0407 14.5392 13.0628Z" fill="#2A2F2F"/>
</svg>
