<svg width="30" height="22" viewBox="0 0 30 22" fill="none" xmlns="http://www.w3.org/2000/svg">
<path d="M28.5022 21.4282C28.2596 21.4267 28.0233 21.3507 27.8253 21.2104L1.23276 2.81837C1.10093 2.7308 0.987917 2.6177 0.900471 2.4857C0.813026 2.35371 0.752924 2.20551 0.72363 2.04986C0.694336 1.89422 0.696433 1.73428 0.729901 1.57948C0.763369 1.42468 0.82751 1.27817 0.918473 1.14858C1.00822 1.01582 1.12343 0.902222 1.2574 0.814402C1.39137 0.726582 1.54143 0.666279 1.69888 0.637008C1.85632 0.607738 2.01798 0.610082 2.17451 0.643895C2.33105 0.677708 2.47937 0.742314 2.61075 0.833973L29.2033 19.226C29.334 19.3177 29.4452 19.4344 29.5307 19.5694C29.6161 19.7044 29.674 19.855 29.7009 20.0125C29.7279 20.17 29.7234 20.3312 29.6878 20.487C29.6522 20.6428 29.5861 20.7899 29.4933 20.92C29.3839 21.0811 29.2358 21.2121 29.0626 21.3009C28.8894 21.3897 28.6967 21.4335 28.5022 21.4282Z" fill="#D1D3D4"/>
</svg>
