<svg width="64" height="88" viewBox="0 0 64 88" fill="none" xmlns="http://www.w3.org/2000/svg">
<path d="M36.2192 87.7212C31.2536 87.6592 26.2998 87.2224 21.3999 86.4144C12.7936 85.1318 6.70151 81.5744 3.34118 75.9116C-1.63887 67.49 -0.792741 54.422 5.92791 35.9574C14.9452 11.2492 12.3584 2.3436 12.3343 2.271C12.2835 2.1121 12.2645 1.94474 12.2783 1.77847C12.2921 1.61221 12.3385 1.45029 12.4148 1.30198C12.4911 1.15366 12.5959 1.02185 12.7231 0.914067C12.8503 0.806281 12.9975 0.724635 13.1562 0.673788C13.315 0.62294 13.4822 0.603884 13.6482 0.617715C13.8143 0.631546 13.9761 0.677994 14.1242 0.754398C14.2724 0.830802 14.4041 0.935664 14.5117 1.06301C14.6194 1.19035 14.701 1.3377 14.7518 1.4966C14.7518 1.8838 17.7253 11.1766 8.32123 36.8044C1.8665 54.543 1.06872 66.9334 5.5411 74.6774C8.56297 79.7836 13.9057 82.8328 21.8834 84.0186C44.1969 87.3824 57.7349 85.4706 60.8051 65.7476C63.7787 46.557 46.3001 24.7528 46.1067 24.6076C46.0044 24.4863 45.9275 24.3456 45.8805 24.1939C45.8336 24.0423 45.8175 23.8827 45.8333 23.7247C45.8491 23.5667 45.8964 23.4136 45.9724 23.2742C46.0485 23.1349 46.1517 23.0122 46.276 22.9136C46.5235 22.713 46.84 22.6183 47.1569 22.65C47.4738 22.6817 47.7653 22.8373 47.9682 23.083C48.7177 24.0026 66.3412 45.9278 63.1743 66.2074C60.5151 82.5666 50.7484 87.7212 36.2192 87.7212Z" fill="#3C4242"/>
</svg>
