<svg width="19" height="19" viewBox="0 0 19 19" fill="none" xmlns="http://www.w3.org/2000/svg">
<path d="M17.4642 18.7566C17.3073 18.7632 17.1507 18.7364 17.0049 18.678C16.859 18.6196 16.7273 18.5309 16.6181 18.4178L1.09775 2.88141C0.98446 2.76892 0.894559 2.6351 0.833192 2.48765C0.771826 2.3402 0.740234 2.18204 0.740234 2.02231C0.740234 1.86257 0.771826 1.70442 0.833192 1.55697C0.894559 1.40952 0.98446 1.2757 1.09775 1.16321C1.3237 0.941506 1.6275 0.817322 1.94389 0.817322C2.26029 0.817322 2.56408 0.941506 2.79003 1.16321L18.3103 16.6996C18.4236 16.8121 18.5135 16.9459 18.5749 17.0934C18.6363 17.2408 18.6679 17.399 18.6679 17.5587C18.6679 17.7184 18.6363 17.8766 18.5749 18.024C18.5135 18.1715 18.4236 18.3053 18.3103 18.4178C18.2012 18.5309 18.0694 18.6196 17.9235 18.678C17.7777 18.7364 17.6211 18.7632 17.4642 18.7566Z" fill="#D1D3D4"/>
</svg>
