<svg width="35" height="71" viewBox="0 0 35 71" fill="none" xmlns="http://www.w3.org/2000/svg">
<path d="M15.0755 70.8504C14.8254 70.8492 14.5812 70.7734 14.3744 70.6326C14.1156 70.4434 13.9406 70.1607 13.8864 69.8444C13.8323 69.5282 13.9032 69.2033 14.0843 68.9386C33.1826 41.8588 33.1826 41.8588 32.1189 32.8564C31.2969 25.5964 27.5014 19.2076 24.0202 13.7384C20.539 8.26919 15.0272 2.38859 11.4493 2.92099C9.03175 3.30819 7.53288 6.79298 6.78346 9.64858L6.0824 12.2622C4.2451 19.135 2.11768 26.9274 3.90663 33.4372C5.23461 37.5044 7.13977 41.3593 9.56361 44.8838C11.2252 47.4503 12.7113 50.1265 14.0118 52.894C14.14 53.1892 14.1458 53.5234 14.028 53.8229C13.9101 54.1224 13.6782 54.3628 13.3833 54.4912C13.0883 54.6195 12.7545 54.6254 12.4553 54.5074C12.1561 54.3894 11.9159 54.1572 11.7877 53.862C10.5281 51.1949 9.09051 48.6158 7.48455 46.1422C4.93638 42.4166 2.94134 38.3409 1.56169 34.0422C-0.372314 26.9032 1.82758 18.772 3.76158 11.6088L4.46268 9.0194C5.7923 3.8406 8.01639 0.984987 11.0624 0.500987C17.3721 -0.491213 24.1411 9.35818 26.0751 12.4074C29.7014 18.1186 33.6177 24.8462 34.5364 32.5418C35.6968 42.4638 35.6968 42.4638 16.0667 70.318C15.9585 70.482 15.8112 70.6165 15.6382 70.7095C15.4652 70.8024 15.2719 70.8508 15.0755 70.8504Z" fill="#3C4242"/>
</svg>
