<svg width="30" height="21" viewBox="0 0 30 21" fill="none" xmlns="http://www.w3.org/2000/svg">
<path d="M27.98 20.928C27.7298 20.9268 27.4858 20.851 27.2789 20.7102L0.686423 2.3182C0.427597 2.12897 0.252547 1.84629 0.198393 1.53006C0.144239 1.21383 0.215248 0.888926 0.396335 0.624204C0.485701 0.494136 0.600083 0.383237 0.732828 0.298016C0.865573 0.212795 1.014 0.154963 1.16936 0.127915C1.32473 0.100867 1.48393 0.105153 1.63762 0.140507C1.79131 0.175861 1.93639 0.241569 2.06438 0.333797L28.6569 18.7258C28.7887 18.8134 28.9017 18.9265 28.9892 19.0585C29.0766 19.1905 29.1368 19.3387 29.166 19.4943C29.1953 19.6499 29.1932 19.8099 29.1597 19.9647C29.1262 20.1195 29.0621 20.266 28.9712 20.3956C28.8614 20.5581 28.7139 20.6915 28.5412 20.7843C28.3686 20.877 28.1759 20.9263 27.98 20.928Z" fill="#D1D3D4"/>
</svg>
