<svg width="126" height="126" viewBox="0 0 126 126" fill="none" xmlns="http://www.w3.org/2000/svg">
<path d="M63.2478 125.962C50.8593 125.962 38.749 122.285 28.4483 115.395C18.1476 108.505 10.1192 98.7124 5.37837 87.2551C0.637488 75.7978 -0.602937 63.1905 1.81394 51.0274C4.23082 38.8644 10.1965 27.6919 18.9565 18.9229C27.7165 10.1538 38.8774 4.18198 51.0278 1.7626C63.1783 -0.656774 75.7726 0.584935 87.2181 5.33072C98.6636 10.0765 108.446 18.1132 115.329 28.4245C122.212 38.7359 125.885 50.8587 125.885 63.26C125.866 79.8838 119.261 95.8212 107.518 107.576C95.7753 119.331 79.8544 125.943 63.2478 125.962ZM63.2478 3.002C51.3364 3.002 39.6925 6.53811 29.7889 13.1631C19.8853 19.788 12.1667 29.2043 7.60954 40.2208C3.05235 51.2373 1.86121 63.3593 4.18677 75.0536C6.51233 86.7479 12.2501 97.4891 20.6745 105.919C29.0988 114.348 39.8312 120.088 51.5143 122.411C63.1974 124.734 75.3064 123.537 86.3098 118.971C97.3131 114.404 106.716 106.674 113.331 96.7576C119.945 86.841 123.473 75.1837 123.468 63.26C123.442 47.2823 117.089 31.9666 105.8 20.6709C94.5114 9.37519 79.2091 3.0212 63.2478 3.002Z" fill="#D1D3D4"/>
</svg>
