<svg width="19" height="15" viewBox="0 0 19 15" fill="none" xmlns="http://www.w3.org/2000/svg">
<path d="M16.3464 3.99499C16.3577 4.1531 16.3577 4.31125 16.3577 4.46937C16.3577 9.29205 12.6871 14.8489 5.97816 14.8489C3.91127 14.8489 1.99124 14.2503 0.376129 13.2113C0.669794 13.2451 0.952126 13.2564 1.25709 13.2564C2.96252 13.2564 4.53246 12.6804 5.78615 11.6978C4.18234 11.6639 2.8383 10.6135 2.37522 9.16784C2.60113 9.2017 2.827 9.2243 3.06421 9.2243C3.39173 9.2243 3.7193 9.1791 4.02422 9.10008C2.35266 8.76122 1.09894 7.29296 1.09894 5.51974V5.47458C1.58458 5.74565 2.14935 5.91506 2.74791 5.93762C1.76529 5.28254 1.12154 4.1644 1.12154 2.89942C1.12154 2.22177 1.30222 1.60058 1.61848 1.05844C3.4143 3.27214 6.11367 4.7178 9.14054 4.87595C9.08408 4.60488 9.05019 4.32255 9.05019 4.04019C9.05019 2.02976 10.6766 0.39209 12.6983 0.39209C13.7487 0.39209 14.6974 0.83257 15.3638 1.54412C16.1882 1.386 16.9788 1.08104 17.6791 0.663157C17.408 1.51026 16.832 2.2218 16.0753 2.67355C16.8095 2.59453 17.521 2.39118 18.1761 2.10885C17.6792 2.83166 17.058 3.47542 16.3464 3.99499Z" fill="#2A2F2F"/>
</svg>
