<svg width="153" height="149" viewBox="0 0 153 149" fill="none" xmlns="http://www.w3.org/2000/svg">
<path d="M37.0571 148.7C35.8685 148.701 34.6839 148.563 33.5275 148.288C7.97451 142.045 6.40314 114.408 4.51749 79.415C3.81641 66.9036 3.06698 53.9808 1.2055 40.574C-0.801021 26.2234 1.9791 15.527 9.49753 8.77521C24.2201 -4.43799 51.417 2.19283 52.5532 2.48323C52.7698 2.54435 52.9666 2.66151 53.1236 2.82295C53.2807 2.98439 53.3924 3.18438 53.4477 3.4028L68.7263 73.5828L126.48 7.85559C126.697 7.61191 127.001 7.46401 127.326 7.4442C127.643 7.4278 127.954 7.53154 128.197 7.73462L152.372 29.1274C152.592 29.3195 152.734 29.5865 152.77 29.8768C152.805 30.1672 152.732 30.4605 152.565 30.7004C149.036 35.7582 72.7635 148.675 37.0571 148.7ZM35.6549 3.03982C27.3629 3.03982 17.6445 4.5886 10.9964 10.5902C4.34826 16.5918 1.59231 26.7558 3.47796 40.2352C5.36361 53.7146 6.08885 66.71 6.8141 79.2698C8.7481 113.271 10.2953 140.109 34.0835 145.941C47.3072 149.135 71.5547 130.138 104.191 90.91C126.722 63.8302 146.159 35.5888 149.761 30.41L127.351 10.5176L68.823 77.1402C68.6772 77.3106 68.4869 77.437 68.2734 77.5054C68.06 77.5738 67.8318 77.5814 67.6143 77.5274C67.3952 77.471 67.196 77.3554 67.0382 77.1932C66.8804 77.031 66.7703 76.8285 66.7197 76.6078L51.1027 4.78222C46.027 3.67121 40.8503 3.08732 35.6549 3.03982Z" fill="#3C4242"/>
</svg>
