<svg width="35" height="35" viewBox="0 0 35 35" fill="none" xmlns="http://www.w3.org/2000/svg">
<path d="M17.603 34.3404C14.5803 34.3037 11.6227 33.4572 9.03748 31.8888C6.45229 30.3205 4.33395 28.0875 2.90271 25.4222C1.47147 22.7568 0.779571 19.7563 0.898945 16.7327C1.01832 13.709 1.9446 10.7726 3.5815 8.22861C5.43341 5.4643 8.05778 3.30735 11.1269 2.0271C14.196 0.74684 17.5739 0.40001 20.8387 1.0299C24.1036 1.6598 27.1107 3.2385 29.4846 5.5689C31.8586 7.8993 33.4941 10.8781 34.1871 14.1334C35.0526 18.5046 34.1627 23.0412 31.7101 26.7601C29.2575 30.4791 25.4398 33.0808 21.0842 34.0016C19.9375 34.227 18.7716 34.3405 17.603 34.3404ZM17.603 3.0982C16.6288 3.099 15.6571 3.19628 14.702 3.38861C11.8723 3.93286 9.26871 5.30843 7.22316 7.3399C5.1776 9.37138 3.78281 11.9667 3.21666 14.7949C2.65052 17.6231 2.93866 20.556 4.04436 23.2196C5.15006 25.8832 7.0232 28.1567 9.42492 29.7504C11.8266 31.344 14.6481 32.1855 17.5295 32.1675C20.4108 32.1495 23.2216 31.2728 25.6032 29.6493C27.9849 28.0258 29.8295 25.729 30.9019 23.0518C31.9743 20.3746 32.2259 17.4383 31.6245 14.6174C30.9442 11.3919 29.1877 8.49416 26.6438 6.40064C24.0999 4.30713 20.9201 3.14247 17.6272 3.0982H17.603Z" fill="#3C4242"/>
</svg>
