<svg width="81" height="101" viewBox="0 0 81 101" fill="none" xmlns="http://www.w3.org/2000/svg">
<path d="M14.1796 100.1C13.9865 100.097 13.7966 100.05 13.6247 99.9618C13.4528 99.8736 13.3035 99.747 13.1884 99.5918C13.0192 99.3256 -4.19342 74.2786 2.11626 45.408C6.32271 26.048 17.2498 14.4804 41.038 4.09861C47.2826 1.16107 54.2315 0.0565444 61.078 0.913241C67.9244 1.76994 74.3878 4.55273 79.718 8.93861C79.8868 9.10542 80.004 9.31742 80.0554 9.54921C80.1069 9.781 80.0905 10.0227 80.0081 10.2454C79.9285 10.4709 79.7813 10.6663 79.5866 10.8049C79.3918 10.9435 79.1592 11.0185 78.9202 11.0198C58.4198 11.77 29.6274 24.233 18.5794 43.23C5.71833 65.3246 15.2433 98.2608 15.34 98.5996C15.4204 98.8736 15.4013 99.1672 15.2863 99.4285C15.1713 99.6898 14.9677 99.9019 14.7114 100.027C14.5403 100.085 14.3599 100.11 14.1796 100.1ZM56.8968 3.05801C51.7596 3.09506 46.6869 4.20791 42.005 6.32501C19.0146 16.3922 8.49846 27.5 4.46124 45.9646C0.42401 64.4292 6.6128 81.9016 11.1577 91.1218C9.0303 79.6268 6.99962 58.3308 16.5004 41.9958C27.3791 23.2892 54.7936 10.681 75.5357 8.86601C70.0393 5.12069 63.5458 3.11414 56.8968 3.1064V3.05801Z" fill="#3C4242"/>
</svg>
