<svg width="412" height="463" viewBox="0 0 412 463" fill="none" xmlns="http://www.w3.org/2000/svg">
<path d="M395.576 462.111H55.119C50.7675 462.105 46.596 460.372 43.519 457.292C40.442 454.211 38.7106 450.036 38.7042 445.68V155.594L1.64392 168.88C1.39484 168.971 1.12259 168.978 0.869195 168.9C0.615798 168.821 0.395327 168.661 0.241765 168.444C0.0848422 168.235 0 167.98 0 167.718C0 167.457 0.0848422 167.202 0.241765 166.992L38.6558 119.875V16.42C38.6622 12.0662 40.3945 7.89292 43.4722 4.81659C46.5499 1.74026 50.7214 0.0123854 55.0706 0.0123901H395.576C399.925 0.0123854 404.096 1.74026 407.174 4.81659C410.252 7.89292 411.984 12.0662 411.99 16.42V445.68C411.984 450.036 410.252 454.211 407.175 457.292C404.099 460.372 399.927 462.105 395.576 462.111ZM39.9129 152.69C40.163 152.691 40.4072 152.767 40.614 152.908C40.7734 153.019 40.9031 153.168 40.9916 153.341C41.0801 153.514 41.1248 153.706 41.1217 153.9V445.68C41.1281 449.394 42.6048 452.954 45.2285 455.58C47.8521 458.207 51.4086 459.685 55.119 459.691H395.576C399.286 459.685 402.842 458.207 405.466 455.58C408.09 452.954 409.566 449.394 409.573 445.68V16.42C409.566 12.708 408.089 9.15028 405.465 6.52779C402.84 3.9053 399.284 2.43238 395.576 2.43239H55.119C51.4109 2.43238 47.8542 3.9053 45.2299 6.52779C42.6056 9.15028 41.1281 12.708 41.1217 16.42V120.214C41.1182 120.486 41.0248 120.75 40.8558 120.964L4.90752 165.056L39.5019 152.763C39.6338 152.715 39.7728 152.691 39.9129 152.69Z" fill="#3C4242"/>
</svg>
