<svg width="229" height="184" viewBox="0 0 229 184" fill="none" xmlns="http://www.w3.org/2000/svg">
<path d="M108.821 183.871C79.1579 183.871 4.16708 114.829 0.806757 111.731C0.693463 111.619 0.603543 111.485 0.542177 111.337C0.48081 111.19 0.449219 111.032 0.449219 110.872C0.449219 110.712 0.48081 110.554 0.542177 110.407C0.603543 110.259 0.693463 110.125 0.806757 110.013C1.03678 109.79 1.34459 109.665 1.66498 109.665C1.98536 109.665 2.29315 109.79 2.52318 110.013C2.74075 110.231 24.4741 130.293 48.9392 148.951C81.0436 173.441 103.14 184.501 112.882 180.895C140.998 170.513 173.658 121.895 182.99 107.23C200.468 79.8114 221.96 43.7292 225.127 27.6604C227.544 15.9234 225.32 6.21921 221.911 3.62981C221.502 3.27155 220.991 3.04897 220.45 2.99265C219.909 2.93632 219.364 3.04899 218.889 3.3152C212.967 6.2676 190.266 28.5316 190.024 28.7494C189.834 28.9419 189.583 29.0618 189.313 29.0883C189.044 29.1148 188.774 29.0463 188.55 28.8946C188.317 28.7543 188.14 28.5383 188.048 28.2828C187.955 28.0273 187.953 27.7478 188.042 27.491C191.016 19.0452 193.627 9.07481 193.022 6.99361C190.605 7.50181 180.234 15.3426 176.656 46.8994C176.613 47.1684 176.496 47.42 176.317 47.6254L102.584 122.645C102.473 122.758 102.342 122.848 102.196 122.909C102.051 122.97 101.895 123.001 101.737 123.001C101.58 123.001 101.424 122.97 101.278 122.909C101.133 122.848 101.002 122.758 100.891 122.645L40.4538 63.6458C40.2229 63.4212 40.0907 63.1139 40.0862 62.7917C40.0817 62.4695 40.2052 62.1587 40.4296 61.9276C40.654 61.6965 40.9609 61.5642 41.2828 61.5597C41.6047 61.5551 41.9152 61.6788 42.146 61.9034L101.834 119.983L174.359 46.1008C178.01 14.8102 188.864 4.42841 193.336 4.42841C193.651 4.42685 193.961 4.50611 194.236 4.65865C194.511 4.81119 194.742 5.03191 194.908 5.29961C196.528 7.71961 194.062 16.7704 191.91 23.4254C198.679 16.9156 212.991 3.43619 217.802 1.04039C218.683 0.573115 219.681 0.37452 220.673 0.469141C221.666 0.563762 222.609 0.947454 223.386 1.57279C228.076 5.17859 229.817 16.2864 227.496 27.9992C224.256 44.4552 202.62 80.8036 185.02 108.416C172.933 127.413 141.747 172.691 113.704 183.049C112.139 183.616 110.485 183.895 108.821 183.871Z" fill="#3C4242"/>
</svg>
