<svg width="159" height="174" viewBox="0 0 159 174" fill="none" xmlns="http://www.w3.org/2000/svg">
<path d="M16.4112 173.814C15.8219 173.751 15.2572 173.543 14.7673 173.209C3.96109 166.772 2.67982 152.905 1.76117 141.749V140.418C-0.801381 111.789 -0.00360644 86.936 4.17867 64.4058C8.09502 43.376 12.1564 21.6202 34.1798 10.0042C48.0321 2.7442 70.7083 -3.5236 88.9846 2.9862C105.907 9.012 120.243 24.0402 126.504 42.2144C128.632 48.3612 130.3 54.6048 131.919 60.6548C135.401 73.5534 138.664 85.726 145.941 97.2452C146.811 98.6488 147.73 100.028 148.648 101.408C152.807 107.675 157.11 114.161 158.077 121.736C159.479 132.384 153.58 143.879 143.402 150.316C132.524 157.213 119.904 157.382 111.25 156.317L106.922 155.688L105.883 155.543C99.3315 154.527 93.1185 153.583 86.5429 155.374C81.5748 156.851 76.7259 158.703 72.0379 160.915C66.6011 163.495 60.9357 165.561 55.1154 167.086C44.8343 169.123 34.3855 170.192 23.9055 170.281L18.1518 170.523C18.0008 170.487 17.8435 170.487 17.6925 170.523C17.6501 170.804 17.6501 171.089 17.6925 171.37C17.8134 171.735 17.8228 172.128 17.7194 172.499C17.6161 172.87 17.4047 173.201 17.1123 173.451C16.9159 173.634 16.6735 173.759 16.4112 173.814ZM71.8445 2.72C59.0683 3.00957 46.5325 6.25649 35.2194 12.2064C14.2355 23.2658 10.2949 44.4166 6.47529 64.8898C2.31719 87.2022 1.64029 111.838 4.05779 140.249L4.17867 141.58C5.09732 151.913 6.20937 164.715 15.3233 170.62C15.323 170.04 15.519 169.477 15.8794 169.022C16.1573 168.709 16.5004 168.46 16.8845 168.292C17.2687 168.125 17.6847 168.044 18.1035 168.054L23.8571 167.812C34.1767 167.786 44.4713 166.798 54.6077 164.86C60.2477 163.359 65.7351 161.334 70.9984 158.81C75.7843 156.561 80.7294 154.668 85.7935 153.147C92.9009 151.235 99.3557 152.228 106.173 153.147L107.213 153.317C108.615 153.51 110.017 153.728 111.443 153.897C119.735 154.938 131.75 154.793 142.025 148.259C151.404 142.33 156.868 131.779 155.587 122.05C154.668 115.032 150.534 108.789 146.545 102.69C145.627 101.287 144.684 99.883 143.789 98.4794C136.319 86.6456 132.862 73.6986 129.502 61.2114C127.882 55.2098 126.214 49.1114 124.135 42.9162C118.091 25.4196 104.287 10.9722 88.0659 5.18839C82.8369 3.45428 77.3521 2.61968 71.8445 2.72Z" fill="#3C4242"/>
</svg>
