<svg width="54" height="44" viewBox="0 0 54 44" fill="none" xmlns="http://www.w3.org/2000/svg">
<path d="M52.2315 43.588C52.0642 43.5863 51.8989 43.5512 51.7453 43.4847C51.5917 43.4182 51.4529 43.3217 51.3371 43.2008C51.047 42.862 21.3842 10.676 1.02889 2.88359C0.863886 2.84186 0.709549 2.76571 0.575974 2.66015C0.442398 2.55459 0.33258 2.422 0.253738 2.27102C0.174895 2.12005 0.128803 1.95412 0.11845 1.78408C0.108097 1.61403 0.133722 1.44368 0.193665 1.28424C0.253608 1.1248 0.346507 0.979834 0.466287 0.858815C0.586067 0.737796 0.730032 0.643457 0.888748 0.581978C1.04746 0.5205 1.21735 0.493281 1.38731 0.50207C1.55727 0.510859 1.72346 0.55545 1.87501 0.632974C22.7864 8.73997 51.8931 40.2 53.126 41.5552C53.349 41.7854 53.4737 42.0936 53.4737 42.4143C53.4737 42.735 53.349 43.0431 53.126 43.2734C53.0058 43.3835 52.8646 43.4681 52.7109 43.5221C52.5572 43.5762 52.3941 43.5986 52.2315 43.588Z" fill="#3C4242"/>
</svg>
